<?xml version="1.0" encoding="UTF-8" standalone="no"?>
<!-- Created with Inkscape (http://www.inkscape.org/) -->

<svg
   xmlns:dc="http://purl.org/dc/elements/1.1/"
   xmlns:cc="http://creativecommons.org/ns#"
   xmlns:rdf="http://www.w3.org/1999/02/22-rdf-syntax-ns#"
   xmlns:svg="http://www.w3.org/2000/svg"
   xmlns="http://www.w3.org/2000/svg"
   xmlns:sodipodi="http://sodipodi.sourceforge.net/DTD/sodipodi-0.dtd"
   xmlns:inkscape="http://www.inkscape.org/namespaces/inkscape"
   width="210mm"
   height="297mm"
   viewBox="0 0 210 297"
   version="1.1"
   id="svg1653"
   inkscape:version="0.92.1 unknown"
   sodipodi:docname="tree.svg">
  <defs
     id="defs1647">
    <marker
       inkscape:stockid="Arrow1Lstart"
       orient="auto"
       refY="0"
       refX="0"
       id="marker112793"
       style="overflow:visible"
       inkscape:isstock="true">
      <path
         inkscape:connector-curvature="0"
         id="path112791"
         d="M 0,0 5,-5 -12.5,0 5,5 Z"
         style="fill:#3f775e;fill-opacity:1;fill-rule:evenodd;stroke:none;stroke-width:1.00000003pt;stroke-opacity:1"
         transform="matrix(0.8,0,0,0.8,10,0)" />
    </marker>
  </defs>
  <sodipodi:namedview
     id="base"
     pagecolor="#ffffff"
     bordercolor="#666666"
     borderopacity="1.0"
     inkscape:pageopacity="0.0"
     inkscape:pageshadow="2"
     inkscape:zoom="0.35"
     inkscape:cx="61.428571"
     inkscape:cy="674.28571"
     inkscape:document-units="mm"
     inkscape:current-layer="layer1"
     showgrid="false"
     inkscape:window-width="1600"
     inkscape:window-height="879"
     inkscape:window-x="0"
     inkscape:window-y="21"
     inkscape:window-maximized="1" />
  <metadata
     id="metadata1650">
    <rdf:RDF>
      <cc:Work
         rdf:about="">
        <dc:format>image/svg+xml</dc:format>
        <dc:type
           rdf:resource="http://purl.org/dc/dcmitype/StillImage" />
        <dc:title></dc:title>
      </cc:Work>
    </rdf:RDF>
  </metadata>
  <g
     inkscape:label="Layer 1"
     inkscape:groupmode="layer"
     id="layer1">
    <path
       style="display:inline;fill:#8bc53d;stroke-width:0.27653468"
       d="m 86.898409,280.35693 c 0.212828,-14.23041 1.48485,-31.62585 4.583479,-62.65772 2.767653,-27.71635 3.287524,-33.13579 4.005515,-41.75225 0.399041,-4.78047 0.793871,-10.24555 0.879278,-12.1446 l 0.15402,-3.45274 -1.387539,-2.51026 c -0.763069,-1.38064 -2.450511,-3.99697 -3.749564,-5.81402 l -2.362158,-3.30387 -1.327331,0.002 c -5.019205,0.01 -11.275565,1.98487 -15.655748,4.94187 -6.447618,4.35256 -11.295999,10.893 -16.03965,21.63713 -0.303829,0.68721 -1.068308,0.3289 -1.068308,-0.50099 0,-0.91701 1.91203,-6.57605 3.202951,-9.48066 2.551318,-5.74073 6.023379,-10.98405 9.564597,-14.44399 3.638661,-3.55535 8.460311,-6.51812 12.677371,-7.79007 1.066902,-0.32237 1.838803,-0.71989 1.838803,-0.9486 0,-0.44 -2.511281,-2.45841 -5.228103,-4.20205 -5.270389,-3.38262 -13.573461,-4.9043 -19.479091,-3.57005 -6.950958,1.57047 -13.12346,5.91922 -19.133529,13.48025 -1.029099,1.29613 -1.31613,1.50818 -1.601329,1.18679 -0.564261,-0.63603 -0.425651,-1.05533 1.19431,-3.63431 4.20306,-6.69258 8.77198,-11.38571 13.89031,-14.26799 1.16911,-0.65781 2.12456,-1.35745 2.123718,-1.55381 -0.0021,-0.64148 -4.003259,-6.88582 -5.952249,-9.28945 -2.62441,-3.23681 -3.528049,-3.99351 -5.504759,-4.60984 -4.58782,-1.43032 -8.759661,-1.37749 -13.096862,0.16554 -2.426568,0.86366 -6.205529,3.35726 -8.189659,5.40445 -2.06352,2.12908 -4.72587,6.04743 -6.15779,9.06291 -1.69122,3.56156 -1.90936,3.93882 -2.15607,3.73167 -0.43824,-0.36811 -0.20162,-1.44 1.09351,-4.95875 3.89615,-10.57372 9.99205,-16.83201 18.44088,-18.93202 1.268521,-0.31584 2.053719,-0.65781 2.00107,-0.87236 -0.112009,-0.46615 -2.9351,-1.65162 -5.81125,-2.44166 -3.60969,-0.99108 -7.74442,-1.35277 -12.68508,-1.10837 -3.35766,0.16554 -4.44836,0.12633 -4.44836,-0.16119 0,-0.21019 0.12601,-0.44654 0.29683,-0.52604 0.80927,-0.39534 7.69835,-1.79669 9.73541,-1.9802 1.27692,-0.11544 2.38345,-0.34524 2.45919,-0.51187 0.07,-0.16664 -0.23382,-0.83316 -0.68606,-1.48194 -2.26892,-3.247574 -4.25697,-8.006581 -5.20556,-12.460948 -0.47465,-2.228828 -0.54885,-3.278169 -0.54045,-7.735829 0.007,-3.910825 0.11201,-5.653159 0.42844,-7.209147 0.69586,-3.40701 1.35253,-5.522682 1.71418,-5.522682 0.39344,0 0.41024,0.329991 0.098,2.095087 -0.12601,0.709001 -0.34023,2.718268 -0.48304,4.464958 -0.72107,8.796282 1.7125,17.494437 6.68956,23.911779 2.523461,3.253782 4.344469,4.645542 7.021949,5.366852 9.773492,2.63322 18.646281,10.47965 24.801412,21.93305 l 1.16631,2.17046 2.52417,-0.18297 c 1.38893,-0.098 2.636031,-0.22762 2.77282,-0.28208 0.14282,-0.0545 1.54141,0.0218 3.121459,0.17208 4.87331,0.46069 10.918672,2.65717 14.996562,5.45037 3.718752,2.54717 8.329535,7.1206 11.825818,11.73008 1.430381,1.88576 2.030892,2.48792 2.222009,2.22807 0.19042,-0.2603 0.18902,-1.91387 -0.006,-6.12038 -0.418637,-8.98535 -1.152308,-13.98984 -2.735438,-18.64302 -2.420834,-7.11857 -7.062145,-13.14085 -12.709589,-16.49147 -3.430612,-2.03552 -5.56091,-2.70816 -9.20154,-2.90561 -4.902851,-0.26574 -8.185182,0.69268 -13.075571,3.81719 -1.35673,0.86692 -2.557769,1.57625 -2.668939,1.57625 -0.112011,0 -0.20162,-0.26247 -0.20162,-0.58266 0,-0.78851 3.918278,-4.28213 6.61648,-5.89987 8.837919,-5.298563 18.67247,-3.604373 27.190886,4.6841 0.652461,0.63495 1.26572,1.15358 1.365129,1.15358 0.411642,0 0.112012,-1.23831 -0.921289,-3.84147 C 83.807066,88.064974 72.400873,76.442929 55.774274,68.942994 c -4.40454,-1.98683 -11.92312,-4.69519 -17.92941,-6.45854 -1.631162,-0.4792 -3.072461,-1.01504 -3.202951,-1.192231 -0.303829,-0.411679 3.203091,-0.098 8.303779,0.750382 11.983741,1.98673 19.784732,4.93654 28.469902,10.765584 4.696888,3.15238 7.81373,5.778513 11.328632,9.544925 1.142511,1.223487 2.182531,2.224472 2.313161,2.224472 0.145611,0 0.23802,-1.531374 0.239419,-3.948507 0.0021,-4.451996 0.466252,-9.30478 1.211122,-12.651235 0.609059,-2.7394 0.50965,-5.12277 -0.392041,-9.386361 -1.104709,-5.223179 -2.746219,-9.143148 -5.431544,-12.971499 -3.562081,-5.078341 -7.981321,-7.90203 -13.69303,-8.748911 -4.281331,-0.634939 -3.656171,-1.451651 1.1033,-1.441631 4.099181,0.009 7.75549,1.184061 10.481831,3.369541 0.44804,0.35941 0.903079,0.65346 1.010889,0.65346 0.112022,0 0.198821,-1.99435 0.20162,-4.43196 0.005,-3.663052 0.112012,-4.969862 0.599261,-7.532394 0.74487,-3.901893 2.1135,-8.019865 2.664321,-8.019865 0.302432,0 0.359831,0.17643 0.242221,0.72533 -1.261521,5.817944 -1.39453,6.888305 -1.41022,11.362087 -0.028,6.725372 0.863889,10.596343 3.501601,15.310483 1.30773,2.335421 3.941802,8.922911 3.941802,9.857131 0,0.95078 0.700062,0.396428 1.557651,-1.23503 4.017544,-7.637132 9.62158,-12.53445 16.32868,-14.269381 2.76248,-0.714439 6.90466,-1.001959 7.13526,-0.495541 0.30243,0.66435 -0.15681,0.95514 -2.31541,1.46636 -3.9624,0.9388 -7.70792,2.917241 -10.96227,5.7906 -2.109864,1.86264 -5.713958,7.00229 -7.205798,10.27535 -1.670081,3.664141 -2.961841,7.987951 -3.579021,11.978939 -0.638462,4.129516 -0.876481,11.516728 -0.502651,15.63274 0.51805,5.707065 0.828879,6.968566 2.498962,10.146395 1.83586,3.492942 4.274749,9.813203 5.454503,14.135293 2.286835,8.37692 4.375005,25.20661 4.849245,39.08232 0.098,2.90722 0.24222,5.3701 0.31923,5.47302 0.07,0.098 0.99409,-1.52756 2.04098,-3.62331 3.05372,-6.11439 6.37569,-10.89551 11.10019,-15.97569 2.11128,-2.27011 2.98552,-3.644 5.28273,-8.30249 2.67204,-5.41848 4.43846,-10.06393 4.78009,-12.57082 0.42424,-3.11863 0.36963,-10.27412 -0.098,-13.63824 -1.20973,-8.587264 -4.5044,-15.841493 -9.01005,-19.837376 -4.46954,-3.964083 -9.40069,-4.784932 -14.5913,-2.429005 -0.9633,0.436727 -1.80576,0.719892 -1.87255,0.629494 -0.44245,-0.602268 2.58872,-2.610993 5.44039,-3.603591 2.3619,-0.822266 6.92706,-0.491183 9.09658,0.65999 2.94702,1.563503 2.69429,1.861042 2.54924,-2.999036 -0.14842,-4.979662 0.18901,-7.410521 1.61086,-11.563453 1.13692,-3.321079 1.99632,-3.717078 1.06411,-0.490088 -1.07811,3.734168 -1.37914,9.403885 -0.70287,13.297612 0.51245,2.958087 1.81206,6.439919 3.21416,8.616146 3.11504,4.83503 5.49402,12.134535 6.05016,18.564007 0.32063,3.70707 0.78408,2.58738 2.34538,-5.680392 1.67093,-8.843515 2.79398,-17.899544 3.92417,-31.646193 0.27583,-3.36726 0.54886,-6.183551 0.60346,-6.258481 0.056,-0.0762 0.15962,-0.0545 0.23102,0.0436 0.18903,0.258109 0.16383,19.38325 -0.028,22.989238 -0.11201,1.995329 -0.084,3.048699 0.07,3.048699 0.12601,0 0.69026,-0.791771 1.23912,-1.758776 1.31613,-2.318573 4.11026,-5.901907 5.8498,-7.503527 1.81262,-1.66882 2.92153,-2.410384 4.95313,-3.312044 4.97737,-2.20912 8.58651,-8.03511 10.02614,-16.184041 0.48445,-2.742661 0.9171,-2.69507 0.80649,0.0871 -0.16943,4.258569 -1.43305,8.91096 -3.38457,12.458898 -0.50826,0.923552 -0.9227,1.800061 -0.9227,1.948939 0,0.149204 0.8541,0.439992 1.9,0.64692 3.50483,0.693753 6.43491,2.759654 9.29989,6.556452 1.74736,2.31563 2.1831,3.190718 1.58873,3.190718 -0.14421,0 -0.75607,-0.594645 -1.36513,-1.321726 -1.5921,-1.906021 -4.01604,-3.773162 -6.13907,-4.729279 -2.55959,-1.152588 -6.65404,-1.215646 -9.39201,-0.144848 -2.53734,0.992163 -5.26061,2.924434 -4.87011,3.45504 0.084,0.117621 0.88768,0.432369 1.77902,0.700286 3.41662,1.025927 7.21745,4.278069 9.31178,7.966067 0.53486,0.939887 0.9703,1.803755 0.9703,1.920396 0,0.560885 -0.64127,0.06535 -1.89859,-1.480293 -3.46171,-4.244309 -8.11187,-6.478038 -12.27253,-5.894938 -1.5767,0.221086 -1.63004,0.259204 -2.91104,2.105001 -1.77524,2.55741 -3.8298,7.15676 -4.97553,11.138019 -0.52225,1.816611 -1.54912,6.255095 -2.28069,9.863175 -1.49381,7.36798 -2.62849,11.75988 -4.50846,17.44999 -0.70707,2.1378 -1.28533,3.93449 -1.28533,3.99275 0,0.33109 0.86249,-0.0218 2.46159,-1.01395 5.09512,-3.15447 12.80219,-6.18706 19.60282,-7.71333 3.14878,-0.70683 7.41767,-1.41616 13.70109,-2.27699 2.27439,-0.31148 1.80058,0.32565 -0.83028,1.11579 -1.27133,0.38227 -4.7154,1.48717 -7.65136,2.45494 -7.44428,2.45396 -9.96439,3.46551 -9.96439,3.99983 0,0.13722 0.93389,0.42583 2.07585,0.64039 5.03183,0.94534 9.98511,2.63867 15.59941,5.33265 9.01579,4.32621 10.77955,4.83384 15.88279,4.57147 2.65788,-0.13613 3.7661,-0.34524 5.46209,-1.0281 6.82666,-2.74909 11.39964,-8.69197 12.95715,-16.83843 0.38084,-1.99327 0.46764,-3.3321 0.41724,-6.46108 -0.028,-2.20576 0.028,-3.98317 0.15541,-4.02913 0.85129,-0.32129 1.37214,8.83587 0.72667,12.77765 -1.30772,7.98592 -6.04381,14.72601 -12.34094,17.56288 -2.29526,1.03355 -6.04134,1.9657 -7.91739,1.96919 -0.66366,0.001 -0.99549,0.13178 -0.93809,0.3692 0.056,0.20257 1.5165,1.58757 3.25968,3.07887 3.14947,2.69441 10.33052,9.50343 11.82446,11.2121 0.42984,0.49119 0.72807,0.96603 0.66226,1.05425 -0.07,0.0871 -2.32058,-1.46679 -5.01179,-3.45668 -6.29882,-4.65729 -12.40456,-8.78397 -16.6285,-11.23857 -4.27912,-2.48662 -9.66925,-4.99012 -9.78,-4.54239 -0.042,0.18623 0.68887,1.38097 1.63523,2.65619 2.92028,3.93914 5.14972,8.80194 6.56359,14.31733 0.59366,2.31422 0.64266,2.90047 0.64826,7.66319 0.005,4.83514 -0.028,5.31826 -0.65946,7.73583 -0.36545,1.41821 -0.99551,3.3763 -1.39875,4.35136 -1.09071,2.63593 -4.45161,7.01213 -6.50226,8.46694 -1.88123,1.33458 -1.9847,1.3764 -1.97588,0.79939 0.003,-0.22108 0.54325,-0.89741 1.19853,-1.50131 1.98092,-1.82587 4.37754,-5.58215 5.43885,-8.52477 1.42729,-3.95722 1.73995,-6.06364 1.60918,-10.84454 -0.098,-3.53999 -0.21143,-4.42803 -0.9423,-7.31566 -1.15231,-4.55251 -2.87393,-8.19303 -5.76774,-12.19577 -4.72674,-6.53827 -8.73997,-9.074 -15.54228,-9.82047 -5.84419,-0.64147 -12.09764,0.52495 -17.10273,3.19115 -7.19463,3.83198 -14.73019,12.60136 -18.90919,22.00568 -3.60565,8.11396 -5.50088,17.9671 -6.10728,31.75078 -0.084,1.98139 -0.084,3.76706 0.008,3.96822 0.098,0.22544 1.21673,-1.13092 2.90179,-3.53455 4.33288,-6.17788 7.62168,-9.52564 12.5212,-12.74566 4.66106,-3.06318 9.46005,-4.85278 15.18145,-5.66132 2.96017,-0.41821 12.60618,-0.10891 12.84336,0.41385 0.29123,0.64039 -0.34724,0.84078 -3.82519,1.2028 -6.06626,0.63058 -10.90836,1.91713 -15.51734,4.12243 -2.48218,1.18766 -7.97046,5.0118 -7.97046,5.55373 0,0.28643 0.53907,0.59246 1.51734,0.86365 4.91156,1.36115 9.79218,4.99916 12.40596,9.24727 2.75631,4.47955 4.70083,11.17639 4.70083,16.18807 0,2.24811 -0.44805,1.64845 -1.10472,-1.47692 -1.99309,-9.48339 -6.36265,-15.72226 -13.18078,-18.81942 -2.0984,-0.95296 -6.17337,-1.60315 -8.12349,-1.2957 -1.38474,0.21891 -1.49143,0.30495 -3.29425,2.68298 -3.49,4.60284 -4.79535,7.28615 -5.93548,12.20046 -1.62739,7.01453 -2.15748,15.25374 -1.98204,30.80077 0.17641,15.69035 1.23772,31.4431 3.26792,48.54775 0.38785,3.26247 0.67628,5.96942 0.64127,6.01538 -0.028,0.0436 -4.92038,0.1895 -10.857385,0.31911 l -10.794915,0.23537 z m 50.484151,-57.02787 c -2.0169,-1.04553 -3.19596,-3.52365 -3.20479,-6.7368 -0.005,-2.08769 0.66087,-4.45984 1.37073,-4.87304 0.22262,-0.12962 1.89902,-0.26792 3.72593,-0.30605 2.54476,-0.0545 3.45092,0.0327 3.87503,0.39316 1.34275,1.12417 1.72779,5.70338 0.70567,8.40194 -1.09771,2.89742 -4.1045,4.34732 -6.47174,3.12067 z m 13.51612,-7.39494 c -3.36902,-1.00524 -4.86352,-2.60185 -4.86352,-5.19737 0,-1.83044 0.24921,-2.46517 1.31752,-3.36281 0.63427,-0.53255 1.08092,-0.67088 1.76208,-0.54671 1.8566,0.33869 4.25153,3.49532 5.55801,7.32622 0.55446,1.62426 0.56987,1.78786 0.19322,1.99042 -0.64407,0.34743 -2.41441,0.25377 -3.96828,-0.21019 z m -22.73242,-4.9251 c -0.26462,-3.45199 0.52647,-8.09306 1.68563,-9.86174 1.71616,-2.62135 5.03239,-1.00415 5.03239,2.45372 0,1.7848 -0.70566,3.64389 -2.06969,5.46061 -1.12011,1.48912 -3.69188,3.80267 -4.22898,3.80267 -0.16243,0 -0.33604,-0.76781 -0.41864,-1.85526 z m 12.96868,-3.1734 c -1.11871,-0.7493 -1.42017,-3.23679 -0.57127,-4.70292 0.8303,-1.43457 4.33177,-3.48381 5.95215,-3.48381 0.58247,0 -0.65667,4.56842 -1.78223,6.57388 -0.59926,1.06841 -1.87382,2.13669 -2.52993,2.12156 -0.17641,-0.004 -0.65665,-0.23307 -1.06831,-0.50861 z m -27.3179,-4.88284 c -1.0613,-3.92608 -1.30072,-5.81097 -1.19431,-9.38984 0.11201,-3.74844 0.70848,-5.55188 2.21418,-6.71144 2.42784,-1.86812 5.3816,-0.16444 6.05407,3.49196 0.64266,3.49012 -1.55892,9.81046 -4.83483,13.88464 -0.67066,0.83425 -1.27834,1.52343 -1.34834,1.53105 -0.07,0.008 -0.47185,-1.25519 -0.89189,-2.80637 z m 9.33168,-2.25269 c -0.30103,-4.11165 0.57125,-8.54448 1.99926,-10.17757 0.89048,-1.01722 2.63913,-1.19747 3.51645,-0.36267 0.69868,0.66543 1.23772,2.1283 1.23772,3.36169 0,2.3885 -2.4431,6.32514 -5.15531,8.30675 l -1.43893,1.05097 z m -76.014818,-3.54925 c -0.91849,-2.47867 -1.29653,-4.96801 -1.17892,-7.76773 0.084,-2.07178 0.17362,-2.41855 0.830281,-3.31162 1.487509,-2.0208 3.93858,-1.37291 4.75038,1.25552 0.462039,1.49325 0.184819,3.94959 -0.742072,6.61472 -0.648258,1.86267 -2.391849,5.06254 -2.758128,5.06254 -0.112011,0 -0.52225,-0.83426 -0.900281,-1.85343 z M 35.639503,194.1139 c 0.71547,-4.22568 2.697498,-8.17766 4.51095,-8.99078 1.149508,-0.51514 2.778839,0.33107 3.306699,1.71804 0.560051,1.47125 0.463441,3.3128 -0.242229,4.56732 -1.16491,2.07669 -4.058431,4.02333 -6.71616,4.51997 l -1.205521,0.22544 z m 103.387947,1.34471 c -1.75802,-0.74494 -2.65244,-3.40995 -1.88319,-5.61232 0.85408,-2.44774 3.04153,-2.83077 5.72951,-1.00415 1.88755,1.28296 4.59974,4.4483 4.22899,4.93557 -0.12601,0.17099 -0.87789,0.63712 -1.66071,1.03464 -1.58748,0.80592 -5.18248,1.16794 -6.4146,0.64583 z m 13.29617,-4.59304 c -0.18202,-2.69082 0.26042,-6.15501 1.05709,-8.27678 1.07811,-2.87248 3.4081,-3.43445 4.92346,-1.18777 1.38754,2.05741 0.90451,4.74966 -1.40867,7.83571 -1.10331,1.47267 -3.77101,3.96572 -4.24327,3.96572 -0.098,0 -0.24222,-1.05206 -0.32903,-2.33688 z m 16.25033,0.67088 c -3.46481,-2.86976 -5.88747,-7.3823 -5.62998,-10.48612 0.098,-1.25539 0.29543,-1.7372 1.08931,-2.74363 0.85688,-1.08693 1.09772,-1.22067 2.18997,-1.22067 1.65973,0 2.63744,0.86149 3.40053,2.99818 0.32903,0.92137 0.72246,2.46952 0.87368,3.44001 0.29963,1.92344 0.16942,8.58707 -0.17503,9.02727 -0.112,0.14377 -0.89888,-0.31256 -1.74779,-1.01504 z m -111.388908,0.39753 c -2.52444,-0.83533 -3.91968,-3.3408 -3.909309,-7.02118 0.005,-2.06785 0.64126,-4.36899 1.338519,-4.85376 0.23943,-0.16663 1.993649,-0.28643 3.89826,-0.26792 3.804441,0.0327 4.059129,0.14922 4.640321,2.03857 0.463449,1.5059 0.39624,4.82632 -0.126011,6.3992 -0.58806,1.75932 -1.97223,3.25322 -3.39953,3.66904 -1.279719,0.37247 -1.41301,0.37465 -2.438469,0.0327 z m 87.129618,-6.58585 c -2.3906,-1.21064 -3.61544,-3.73582 -3.45654,-7.12606 0.084,-1.68144 0.24222,-2.34601 0.90031,-3.65575 1.52152,-3.02911 2.9459,-3.41846 4.97679,-1.36007 0.69307,0.70246 1.7786,1.51144 2.41218,1.79733 1.62709,0.73405 2.18098,1.79265 2.0526,3.9215 -0.28003,4.65218 -3.83527,7.96792 -6.88548,6.42305 z m 34.57973,-3.27665 c -2.49925,-0.85385 -3.98523,-1.68527 -5.52762,-3.09347 -2.55498,-2.33283 -3.60663,-4.35267 -3.60663,-6.9275 0,-2.93946 1.4885,-5.09271 3.81329,-5.51638 2.39115,-0.43562 5.11219,3.44742 6.63808,9.47261 0.40464,1.59716 1.0627,6.5142 0.89749,6.70392 -0.042,0.0545 -1.0403,-0.2385 -2.21378,-0.6393 z m -136.568269,0.26683 -0.624459,-0.1307 0.854081,-2.26248 c 1.691079,-4.47792 4.512209,-7.78899 6.673738,-7.83288 2.705201,-0.0545 4.153782,3.90244 2.561262,6.997 -1.22791,2.38576 -5.891342,3.97671 -9.46546,3.22894 z m 24.941991,0.0218 c -2.170769,-1.20138 -2.73825,-2.21457 -2.54489,-4.54348 0.30103,-3.62799 2.817911,-4.43784 6.322312,-2.03443 1.633389,1.12024 4.179958,4.15805 3.85513,4.59913 -0.112012,0.16554 -0.952101,0.66108 -1.844541,1.10118 -1.60147,0.7896 -5.0122,1.30703 -5.788011,0.87781 z m 64.294748,-0.46069 c -2.49448,-0.68613 -3.32155,-1.73656 -3.32155,-4.21849 0,-1.34166 0.112,-1.74985 0.81209,-2.77687 0.73507,-1.08931 0.92408,-1.20181 1.98652,-1.18134 1.78014,0.0327 3.64358,1.41844 5.69312,4.2283 0.9521,1.30495 1.67527,2.49381 1.60792,2.64203 -0.40744,0.89524 -5.03212,1.78677 -6.77852,1.30637 z m -24.22749,-5.09935 c -0.75328,-1.02484 -0.91989,-1.47747 -0.91849,-2.49795 0.003,-1.48879 0.81767,-3.95275 1.93051,-5.83972 0.89049,-1.50774 3.22873,-4.03541 3.51338,-3.79636 0.40183,0.33762 0.77567,4.13344 0.67487,6.8406 -0.16803,4.49218 -1.23633,6.54491 -3.40978,6.54491 -0.69586,0 -1.05569,-0.25267 -1.7912,-1.25148 z M 60.365021,176.2479 c -0.644059,-0.36376 -0.91708,-0.76672 -1.115898,-1.64312 -0.540451,-2.39306 0.97029,-4.66164 3.930729,-5.90419 1.34973,-0.56633 2.66432,-0.83207 2.66432,-0.5391 0,0.61642 -0.893289,3.90614 -1.34693,4.9606 -0.576861,1.33882 -2.03005,3.31727 -2.43721,3.31727 -0.112009,0 -0.351441,0.0654 -0.52505,0.14485 -0.173619,0.0762 -0.698669,-0.0762 -1.169119,-0.33653 z m 91.067539,-3.05709 c -0.65527,-0.51841 -1.15651,-2.1099 -0.98289,-3.11404 0.36822,-2.12232 2.03692,-3.21185 4.36284,-2.85092 1.55513,0.24178 3.55888,1.088 3.55888,1.50414 0,0.67415 -2.03693,2.99164 -3.39998,3.8677 -1.4952,0.96058 -2.79874,1.17938 -3.5397,0.59356 z m -78.707708,-2.023 c -2.76247,-2.7579 -4.744919,-6.89221 -4.744919,-9.89484 0,-1.51003 0.084,-1.78971 0.92129,-2.92128 0.84568,-1.14931 1.0263,-1.25136 2.22187,-1.25136 1.514669,0 2.315549,0.67524 2.998388,2.52844 0.628661,1.70376 0.761672,2.70693 0.761672,5.68081 0,2.47572 -0.60765,6.94994 -0.94089,6.93208 -0.084,-0.004 -0.63006,-0.48792 -1.21671,-1.07385 z m 88.866448,0.0762 c -1.07531,-4.3494 -0.68747,-9.05515 0.83168,-10.12313 1.04731,-0.73513 1.83461,-0.58265 2.6394,0.51079 0.65808,0.89524 0.71269,1.12547 0.60767,2.60697 -0.084,1.21825 -0.34864,2.07559 -1.0515,3.42356 -1.13833,2.18744 -2.86722,4.23243 -3.0281,3.58192 z M 47.220572,169.52207 c -1.625,-0.48356 -4.62633,-2.05109 -4.62633,-2.41562 0,-0.13395 0.891889,-1.40602 1.980351,-2.82662 2.63771,-3.44034 5.344448,-5.34125 7.841869,-5.50712 1.45964,-0.098 1.7947,-0.01 2.511139,0.65019 2.27158,2.09433 2.518841,6.4188 0.498451,8.72779 -1.53063,1.74994 -4.991899,2.32825 -8.206039,1.37115 z m 145.317348,-2.61688 c -1.92504,-1.13418 -2.89058,-3.33633 -2.89058,-6.59261 0,-2.62895 0.51524,-4.31389 1.54015,-5.03368 0.61466,-0.43236 0.91288,-0.44978 2.00848,-0.11653 0.99971,0.30386 1.61829,0.30603 2.78348,0.008 1.91468,-0.49118 2.63379,-0.0762 3.37768,1.92248 1.30912,3.52702 0.15962,8.12723 -2.4298,9.72559 -1.1621,0.71771 -3.24984,0.7591 -4.38941,0.0871 z m -106.527054,-0.7678 c -4.5545,-0.65673 -8.805023,-3.94459 -9.467995,-7.32296 -0.632859,-3.22481 1.051502,-6.4703 3.524003,-6.79312 2.194852,-0.28643 4.666933,2.32707 6.585532,6.96291 0.735072,1.77717 1.968171,6.25956 1.968171,7.1572 0,0.33543 -0.261829,0.33434 -2.609711,-0.004 z m 47.495124,-0.76672 c -0.81209,-0.61208 -1.46539,-2.14923 -1.46707,-3.44928 -0.003,-2.45165 2.39663,-5.91017 5.39068,-7.76827 0.81349,-0.50426 1.56003,-0.91703 1.66071,-0.91703 0.65387,0.001 0.098,6.03695 -0.81488,8.79159 -0.83169,2.52039 -1.91091,3.78222 -3.22145,3.76718 -0.55025,-0.006 -1.24612,-0.19713 -1.54814,-0.42474 z m 8.56985,-0.64475 c -0.77429,-0.96385 -0.87091,-1.25921 -0.8863,-2.72143 -0.014,-1.4497 0.07,-1.77402 0.80089,-2.78786 1.24333,-1.7431 2.96452,-2.49739 6.12128,-2.68222 l 2.66894,-0.15574 -0.50684,1.57157 c -0.65948,2.04411 -1.22232,3.15989 -2.55443,5.06264 -2.12513,3.03465 -4.10003,3.63441 -5.64285,1.71348 z m 35.98811,0.13395 c -1.68856,-0.46069 -2.87573,-1.71216 -3.68461,-3.88262 -0.53624,-1.43651 -0.56425,-4.95025 -0.056,-6.29593 0.74628,-1.96211 0.90729,-2.02811 4.80417,-1.97518 1.95725,0.0218 3.70337,0.17426 3.87993,0.3289 1.00109,0.87455 1.53203,4.96681 0.9521,7.32502 -0.79109,3.20511 -3.38611,5.18573 -5.89853,4.4997 z M 37.073092,164.42533 c -2.016609,-0.88 -3.759359,-4.03564 -3.79086,-6.86434 -0.028,-1.9755 0.484449,-2.8068 2.233779,-3.66926 0.826071,-0.40732 1.861751,-1.16642 2.300282,-1.68647 1.551059,-1.83904 2.695808,-1.91081 4.031959,-0.25267 1.648801,2.04597 2.347471,5.75652 1.563669,8.30533 -1.001088,3.25507 -3.964339,5.20346 -6.338829,4.16741 z m 81.656348,-5.16949 c -1.50039,-1.07603 -2.35797,-2.87804 -2.51927,-5.29245 -0.16941,-2.53487 0.056,-4.03334 0.76307,-5.18213 l 0.57547,-0.929 h 3.67705 c 3.43076,0 3.70842,0.0436 4.14441,0.67743 1.51986,2.20464 1.25313,7.60088 -0.48165,9.76818 -1.4742,1.84134 -4.312,2.28253 -6.15922,0.95731 z m 88.16027,0.23088 c -2.23643,-0.38663 -3.29087,-0.87998 -4.16007,-1.94708 -1.0459,-1.2823 -1.33153,-2.5354 -0.9437,-4.13016 0.86809,-3.57104 3.7777,-3.58596 6.8069,-0.0327 0.91148,1.06948 2.9232,4.74998 2.9232,5.35006 0,0.42256 -3.37363,0.97909 -4.62647,0.76237 z m -49.73112,-1.21521 c -2.26797,-1.10118 -3.4015,-3.44076 -3.3777,-6.97149 0.014,-2.14313 0.40744,-3.67135 1.16351,-4.52356 0.29964,-0.33653 1.29932,-0.46069 3.97781,-0.49117 3.39954,-0.0436 3.60466,-0.004 4.10451,0.67414 1.0305,1.4008 1.32734,4.69269 0.66087,7.34854 -0.83729,3.34146 -3.93594,5.22188 -6.529,3.963 z M 45.687422,152.84598 c -0.34163,-2.35636 -0.345829,-6.9323 -0.01,-8.63084 0.743471,-3.74911 3.311882,-5.54437 5.344451,-3.73494 2.101601,1.87073 1.799169,5.72362 -0.78128,9.96748 -0.96189,1.57952 -3.516429,4.39101 -3.99696,4.39723 -0.14701,0.002 -0.39624,-0.89743 -0.55585,-1.99893 z m 10.13137,-0.17426 c -1.51705,-5.04076 -1.786991,-11.07118 -0.63286,-14.1202 1.386131,-3.66012 5.15011,-4.04893 6.9014,-0.71336 0.462039,0.87999 0.55445,1.45557 0.55445,3.47226 0,2.12459 -0.098,2.7213 -0.882081,4.92552 -1.043099,2.96647 -2.57569,5.76904 -4.059409,7.42076 -0.588061,0.65563 -1.10471,1.19093 -1.149509,1.19038 -0.042,-5.3e-4 -0.373841,-0.9791 -0.733671,-2.17569 z m -25.35223,-0.52493 c -1.267121,-0.61535 -2.33626,-1.59597 -3.49459,-3.20587 l -1.0319,-1.43367 1.26852,-0.59683 c 1.761371,-0.82879 5.0507,-0.83534 5.94511,-0.0109 1.22092,1.12514 1.32733,3.43543 0.221221,4.77873 -0.828881,1.00631 -1.559332,1.12372 -2.908361,0.46831 z m 102.401528,-1.3616 c -1.37916,-4.42933 -1.63299,-5.99425 -1.64714,-10.12595 -0.0127,-3.69834 0.028,-4.1697 0.58525,-5.64074 2.09492,-5.60861 8.33029,-2.79124 7.71718,3.48695 -0.34583,3.54991 -2.29289,8.22528 -4.84352,11.63511 l -1.42156,1.90025 z m 63.55044,0.78525 c -1.13831,-0.7493 -1.36233,-3.23603 -0.42704,-4.74508 0.76026,-1.22805 3.14176,-2.81378 4.81548,-3.20694 l 1.27272,-0.29841 -0.14981,1.27608 c -0.14562,1.23363 -1.23352,4.41933 -1.85295,5.4251 -1.07669,1.7468 -2.46282,2.33448 -3.65616,1.54935 z M 14.124342,150.9954 c -2.58563,-0.69376 -4.03323,-3.24376 -4.03323,-7.10667 0,-2.1123 0.38644,-3.74496 1.0669,-4.51255 0.61886,-0.69593 7.10652,-0.77435 7.9088,-0.098 1.66742,1.4107 1.6488,7.26533 -0.028,9.7121 -1.10331,1.60684 -3.19987,2.46199 -4.91153,2.00306 z m 159.891118,-3.19769 c -1.04171,-1.46691 -1.76797,-3.424 -2.21854,-5.97053 l -0.1652,-0.93335 1.21811,0.19603 c 1.37634,0.2211 3.62679,1.51745 4.47332,2.57593 0.31083,0.38881 0.71267,1.17807 0.89328,1.75421 0.28005,0.89632 0.27864,1.20616 -0.0105,2.14975 -0.40464,1.31781 -0.9899,1.79875 -2.18646,1.79875 -0.75327,0 -1.0599,-0.23959 -2.00402,-1.57058 z M 0.36732786,147.03098 c 0.0122,-4.71925 2.13757874,-10.38277 4.15433754,-11.07052 2.2987387,-0.78414 4.2925285,2.13255 3.5973578,5.26152 -0.3150297,1.41659 -2.0031688,3.79276 -3.5963778,5.06123 -0.9982994,0.79505 -3.4706478,2.11763 -3.95859747,2.11763 -0.11201007,0 -0.19742007,-0.61642 -0.19602007,-1.36986 z m 65.00569514,0.64474 c 0.007,-1.02701 0.722469,-3.89133 1.405879,-5.63486 1.0809,-2.75639 2.536481,-4.60108 3.812839,-4.83361 2.4599,-0.44871 4.152242,3.0488 2.86412,5.91857 -0.90029,2.00458 -3.466309,3.94959 -6.077558,4.60534 -1.76543,0.44326 -2.00878,0.43672 -2.00528,-0.0545 z m 82.441567,-2.39786 c -3.85977,-3.08266 -6.53264,-8.08031 -5.96501,-11.15296 0.25342,-1.36866 1.51382,-3.08202 2.54642,-3.45973 3.12848,-1.14452 5.32503,3.23353 5.25978,10.48351 -0.014,1.77271 -0.11202,3.68287 -0.22402,4.24463 l -0.19322,1.02157 z m 41.28151,-0.21672 c -1.4917,-0.94207 -2.49113,-3.13005 -2.49113,-5.45418 0,-1.30877 0.80369,-3.24409 1.81809,-4.38056 1.80701,-2.02375 5.87595,-3.58626 9.33861,-3.58626 2.25983,0 2.21866,-0.30278 0.59087,4.35135 -1.88178,5.38176 -4.82697,9.18291 -7.28728,9.40541 -0.75047,0.0653 -1.54519,-0.0653 -1.96985,-0.33544 z M 31.809992,144.01561 c -1.444379,-0.47484 -4.874289,-2.62722 -4.874289,-3.05915 0,-0.13179 0.721069,-0.97475 1.601478,-1.87226 1.960041,-1.99839 4.21762,-3.28156 6.1092,-3.47268 1.901381,-0.19168 2.891282,0.49662 3.63293,2.52701 0.476052,1.303 0.51525,1.67121 0.296831,2.7773 -0.635659,3.20324 -3.063359,4.31597 -6.765311,3.09978 z m 91.045538,0.0327 c -0.67767,-0.64584 -1.09912,-2.41639 -0.81348,-3.41758 0.53345,-1.86508 3.20841,-4.0106 5.45116,-4.37152 l 1.18593,-0.19059 -0.23103,1.39786 c -0.32624,1.97191 -1.5613,4.98358 -2.5064,6.11089 -0.91009,1.08584 -2.22873,1.28698 -3.08604,0.47158 z m 32.31023,-1.10915 c -1.27273,-0.70137 -3.1898,-4.70858 -3.53368,-7.38743 l -0.14282,-1.08365 1.11873,0.22763 c 2.36636,0.48246 4.68796,2.24157 5.34056,4.04762 0.57824,1.59998 0.19461,3.25334 -0.9227,3.97725 -0.89049,0.57722 -1.15651,0.60773 -1.8626,0.21892 z m -138.004948,-7.6375 c -0.9717,-0.54782 -1.53945,-2.1013 -1.24752,-3.41518 0.43824,-1.97725 3.06195,-4.18234 5.49328,-4.61711 l 1.23212,-0.21999 -0.30663,1.57014 c -0.62026,3.18375 -2.02851,6.00135 -3.3844,6.77112 -0.42564,0.24177 -0.80508,0.43238 -0.84148,0.42256 -0.042,-0.009 -0.46205,-0.2396 -0.94509,-0.51187 z m 23.83168,-0.61424 c -0.684671,-0.46723 -1.564791,-1.37575 -1.954591,-2.01821 -0.882079,-1.45372 -2.194428,-4.86062 -2.693998,-6.99307 -0.400431,-1.70563 -0.949291,-5.96031 -0.795272,-6.16779 0.268822,-0.36485 3.907071,1.10936 5.847522,2.37032 3.983239,2.58857 5.935308,6.04808 5.227259,9.26428 -0.548849,2.48902 -1.58257,3.70913 -3.55438,4.19149 -0.63286,0.15466 -1.128509,2.2e-4 -2.0764,-0.64692 z m 69.336378,0.33761 c -1.11031,-0.53147 -2.16587,-2.09858 -2.49379,-3.70248 -0.38223,-1.86747 -0.27303,-6.14369 0.22402,-8.78106 0.40045,-2.12657 1.97589,-7.01848 2.26039,-7.01848 0.31364,0 2.4238,3.3847 3.34592,5.36599 1.70173,3.65677 2.51381,7.5346 2.14194,10.22792 -0.20582,1.49391 -1.18173,3.04282 -2.3836,3.78449 -1.14252,0.70465 -1.82228,0.73188 -3.09418,0.12307 z M 5.3460649,133.08427 C 3.506146,132.52556 2.7910963,132.15418 1.1145773,130.88985 l -1.26571911,-0.95514 0.67205974,-0.77651 c 3.39574777,-3.92117 7.67525527,-5.68552 9.70726407,-4.00209 0.80928,0.67088 1.52321,2.4155 1.52321,3.72459 0,1.37366 -0.84568,3.26378 -1.71124,3.8213 -1.1831181,0.76345 -2.9642282,0.90829 -4.6946468,0.38227 z m 19.6622171,-1.84776 c -0.76447,-3.17405 -0.80088,-7.83931 -0.07,-9.75045 0.90449,-2.37447 2.967029,-3.0399 4.58194,-1.4777 1.548691,1.49827 1.492681,4.59828 -0.15121,8.37385 -0.827481,1.90058 -3.09206,5.19116 -3.57259,5.19116 -0.12601,0 -0.47604,-1.05206 -0.78547,-2.33686 z m 57.471161,-0.38554 c -1.226519,-0.54128 -2.531021,-2.14388 -3.031009,-3.72448 -0.436841,-1.38314 -0.491451,-4.27089 -0.112012,-5.84454 0.53625,-2.20608 0.830282,-2.35582 4.733713,-2.40212 1.914132,-0.0218 3.676062,0.098 3.915484,0.26029 1.0837,0.75258 1.660841,4.64992 1.096299,7.41187 -0.70426,3.43969 -3.874171,5.50331 -6.605134,4.29854 z m 99.133887,-1.88816 c -1.55234,-1.11524 -2.20677,-2.96124 -2.04379,-5.76622 0.21562,-3.69914 1.68548,-7.75919 4.17705,-11.53139 l 1.37773,-2.08464 0.85689,2.31302 c 2.31527,6.24621 2.55358,13.20425 0.55305,16.15646 -1.18872,1.75464 -3.2241,2.13211 -4.92122,0.91267 z m -13.64228,-1.45819 c -1.14113,-0.72425 -2.09644,-2.17851 -2.48653,-3.78385 -0.42563,-1.7517 -0.20581,-5.40106 0.39066,-6.4955 0.81347,-1.49403 1.52515,-1.79527 3.18908,-1.3506 1.12292,0.29951 1.72554,0.29951 2.72399,-0.004 1.49675,-0.45524 2.24051,-0.12198 3.05246,1.36857 0.40743,0.74822 0.49563,1.37738 0.49563,3.54556 0,3.19324 -0.49984,4.74293 -1.99351,6.17595 -0.84989,0.81574 -1.26013,0.97583 -2.70718,1.05751 -1.28812,0.0762 -1.94018,-0.0545 -2.66391,-0.51296 z m 36.42601,-3.58019 c -3.20408,-1.32424 -5.13934,-6.1643 -3.40625,-8.51894 0.34443,-0.46722 0.70986,-0.84949 0.81208,-0.84949 0.35983,0 1.69612,-1.73112 2.24119,-2.90409 1.15511,-2.48488 3.0901,-2.42117 4.9933,0.16445 1.23492,1.67722 1.76683,3.26066 1.76683,5.25589 0,4.34911 -3.47415,8.06468 -6.40729,6.85251 z m -86.59465,-1.36878 c -2.72552,-2.49567 -1.92142,-7.69013 2.02418,-13.0766 1.07111,-1.46255 2.04743,-2.65915 2.16912,-2.65915 0.41443,0 1.34132,4.64512 1.44858,7.26538 0.15262,3.72931 -0.26044,6.06119 -1.35674,7.659 -0.78128,1.13854 -1.03891,1.30811 -2.17036,1.43162 -1.06271,0.11653 -1.42689,0.009 -2.11423,-0.6208 z M 7.2222438,121.21901 c -2.2039587,-1.58138 -3.2308081,-6.04615 -2.1522887,-9.35843 0.6622597,-2.034 1.489039,-2.51581 3.5347778,-2.05981 0.9268894,0.20693 1.9012391,0.22109 2.6097091,0.0436 1.49996,-0.38554 2.04377,-0.24068 2.76022,0.73187 1.38474,1.88132 1.31333,6.56945 -0.14281,8.95992 -1.49156,2.45843 -4.4780494,3.21993 -6.6149282,1.6867 z m 52.4540592,-3.53348 c 0,-3.39985 0.434038,-6.05582 1.372129,-8.39718 0.789681,-1.96789 1.713619,-2.78962 3.135882,-2.78483 1.852379,0.006 3.00777,1.34145 3.245789,3.75151 0.27723,2.80673 -2.38387,7.11194 -5.761831,9.32204 -0.926889,0.60664 -1.754511,1.10283 -1.838659,1.10283 -0.084,0 -0.154011,-1.34744 -0.154011,-2.99437 z m 11.986689,-0.90721 c -1.184519,-1.78189 -2.259259,-4.93745 -2.259399,-6.63665 -2.65e-4,-1.81979 0.735071,-2.97869 2.04252,-3.21688 0.845679,-0.15466 1.0795,-0.0544 1.77887,0.80049 l 0.805069,0.978 -0.01339,3.00647 c -0.01111,2.41333 -0.12601,3.34037 -0.562851,4.6987 -0.302429,0.93118 -0.63146,1.69225 -0.729469,1.69225 -0.098,0 -0.576861,-0.59574 -1.0599,-1.32305 z m 62.599908,0.70791 c -0.76028,-0.6306 -1.27692,-2.06276 -1.27692,-3.54797 0,-2.7809 3.75125,-5.78911 7.78253,-6.24097 0.85689,-0.098 1.22794,-0.0327 1.16213,0.21673 -0.056,0.19603 -0.28702,1.19561 -0.52086,2.22023 -0.54745,2.38939 -2.11966,5.57728 -3.41438,6.91885 -1.20133,1.24374 -2.56325,1.40209 -3.73236,0.43346 z m -53.846837,-1.9544 c -1.283921,-0.70573 -2.93482,-4.24694 -3.517689,-7.54309 l -0.163823,-0.92574 1.129912,0.2298 c 2.378412,0.48464 4.69871,2.24006 5.352714,4.05014 0.571259,1.58148 0.184819,3.30629 -0.897484,4.00396 -0.854088,0.55109 -1.177518,0.58268 -1.904048,0.18406 z m 110.532417,-2.02387 c -1.49212,-1.44012 -2.95051,-5.45694 -3.27926,-9.03147 -0.14281,-1.53487 -0.11201,-1.84776 0.18762,-1.84776 0.88209,0 3.53437,1.39067 4.84209,2.53912 2.51716,2.21033 3.38707,4.57008 2.55889,6.94127 -0.74487,2.13223 -2.84423,2.81359 -4.31003,1.39884 z m -79.07735,0.0436 c -1.91428,-1.04553 -3.57177,-5.42905 -3.86215,-10.21413 l -0.098,-1.70769 0.73787,0.19603 c 1.27974,0.3398 4.21947,2.45309 5.305,3.8125 1.77215,2.21937 2.17106,4.1986 1.25593,6.23587 -0.70567,1.57221 -2.17357,2.31094 -3.33331,1.67742 z m 53.63706,-2.16001 c -0.94229,-1.21784 -2.21475,-4.46106 -2.50009,-6.37309 -0.14421,-0.96711 -0.12601,-0.98999 0.63286,-0.86038 2.53175,0.43019 5.37053,2.60578 5.90832,4.52705 0.32904,1.17656 -0.15401,2.87469 -0.9829,3.45746 -1.16212,0.81683 -2.00514,0.6099 -3.05778,-0.75039 z m 7.18931,-0.0327 c -1.31614,-1.09085 -1.64376,-3.65774 -0.70568,-5.53437 1.02071,-2.04108 4.6734,-4.16459 7.16328,-4.16459 h 1.24193 l -0.24083,1.20877 c -0.67348,3.38514 -2.73029,7.56913 -4.24453,8.63297 -0.9269,0.65237 -2.33167,0.5892 -3.21586,-0.14267 z m 27.97072,-2.9213 c -0.89189,-0.7384 -1.12851,-1.71674 -0.9395,-3.87643 0.14282,-1.59869 1.19572,-4.71797 2.06212,-6.091969 0.47465,-0.75148 0.49705,-0.75583 0.83169,-0.16119 0.60064,1.071671 1.34552,4.095769 1.47728,5.999839 0.16381,2.37859 -0.23523,3.73104 -1.27413,4.32165 -1.02349,0.58159 -1.24471,0.56199 -2.15494,-0.19168 z m -50.59981,-2.48053 c -1.08372,-0.76564 -1.41876,-1.22175 -1.97379,-2.69029 -0.58665,-1.54978 -0.65946,-2.05436 -0.58946,-4.088469 0.12601,-3.867259 1.29794,-5.29027 3.78766,-4.624949 1.06552,0.285348 1.72848,0.286438 2.72118,0.007 2.48763,-0.701369 3.64611,0.919199 3.64611,5.102521 0,4.245857 -1.67778,6.787157 -4.66471,7.065637 -1.44382,0.13396 -1.76614,0.0545 -2.92727,-0.77108 z M 5.4414148,105.88077 c -0.8428894,-0.6992 -2.0224988,-3.14433 -2.5681285,-5.32733 -0.6090597,-2.442178 -0.5656497,-2.558708 0.8722798,-2.304949 1.7274887,0.30494 4.1823371,2.011549 4.8563668,3.375869 1.5470091,3.13148 -0.7616694,6.2425 -3.1595381,4.25641 z m 44.9566172,-0.79178 c -1.35533,-0.75692 -2.821969,-2.00829 -2.82113,-2.40582 7.94e-4,-0.38118 1.96873,-1.90733 3.15142,-2.44426 1.47728,-0.670879 3.57132,-0.669788 4.32544,10e-4 1.211109,1.07821 1.15651,4.35509 -0.084,5.25937 -0.828881,0.60336 -3.124401,0.39643 -4.56892,-0.41059 z m 87.394628,-0.42366 c -0.75327,-0.21346 -1.86906,-1.83066 -2.03385,-2.95024 -0.32063,-2.175589 0.83589,-4.80238 3.16503,-7.18989 1.19011,-1.220978 3.04405,-2.536899 3.57232,-2.536899 0.35283,0 0.24922,4.85939 -0.14842,6.93107 -0.83588,4.359099 -2.41496,6.351169 -4.55508,5.745959 z m -23.15485,-2.78602 c -1.48386,-2.525938 -3.07722,-6.634329 -3.46087,-8.923999 -0.12602,-0.798309 -0.24503,-2.4081 -0.24922,-3.578548 -0.006,-2.422144 0.49424,-3.77349 1.86498,-5.028237 2.37156,-2.171216 5.70894,-0.484645 6.39796,3.233193 0.67905,3.665783 0.028,8.495551 -1.78953,13.374141 -0.61605,1.65249 -1.18452,3.05744 -1.26293,3.12213 -0.07,0.0653 -0.75188,-0.92465 -1.50082,-2.19868 z M 13.768422,100.50422 c -1.30772,-0.63168 -3.46141,-2.99806 -4.7457484,-5.2148 l -1.0725004,-1.8507 0.6930597,-0.39207 c 1.1271094,-0.637119 3.8479891,-1.111969 5.1246291,-0.894149 3.25503,0.55435 4.62647,1.950239 4.62647,4.706959 0,3.43412 -1.92407,4.94994 -4.62647,3.64497 z M 192.78,100.16551 c -1.42575,-1.62983 -2.61629,-5.978469 -2.61629,-9.556111 0,-2.216632 -0.042,-2.210642 2.80307,-0.345242 2.05484,1.344155 4.17198,4.034295 4.51893,5.741773 0.54046,2.653361 -0.78268,5.00733 -2.81427,5.00733 -0.89608,0 -1.31332,-0.18733 -1.89144,-0.84732 z m -133.948678,-0.0762 c -1.41736,-1.17372 -3.122859,-4.45984 -3.5443,-6.82644 l -0.147019,-0.823349 1.75549,0.227619 c 0.966089,0.12524 2.30728,0.549992 2.981449,0.944242 1.307722,0.76345 2.64569,2.534208 2.64569,3.49893 0,1.18809 -0.506849,2.50241 -1.170508,3.034868 -0.882092,0.70791 -1.619261,0.69157 -2.521641,-0.0545 z M 29.869403,99.752782 c -1.094901,-0.907222 -1.61785,-3.000671 -1.430232,-5.731902 0.16941,-2.46644 0.861082,-5.50174 1.660282,-7.297221 l 0.551648,-1.238189 0.950691,1.56056 c 1.986089,3.255192 3.08352,6.995541 2.856129,9.735272 -0.17081,2.05762 -1.381929,3.590518 -2.834428,3.588778 -0.57685,-5.3e-4 -1.331532,-0.26574 -1.75563,-0.61752 z m 36.56829,-2.979981 C 65.124362,95.78826 63.551033,92.967 62.884291,90.399132 l -0.36404,-1.403078 1.60329,0.182965 c 1.974192,0.225443 4.07103,1.256487 5.031531,2.475402 0.604851,0.76781 0.723871,1.16174 0.723871,2.415471 0,1.205518 -0.126021,1.651828 -0.62866,2.288069 -0.683271,0.860391 -1.965791,1.04989 -2.81245,0.414951 z m 8.766519,-0.0653 c -1.912869,-1.17644 -3.622011,-5.895561 -4.033089,-11.135404 -0.142811,-1.788073 -0.112011,-2.037694 0.207219,-1.87117 0.201621,0.108907 0.82608,0.359399 1.386131,0.564149 2.629451,0.961671 5.763509,3.911479 6.57447,6.18725 0.627259,1.757794 0.638459,3.005865 0.042,4.337285 -0.886291,1.97311 -2.716411,2.81432 -4.17408,1.917891 z M 167.38774,96.39275 c -1.28812,-0.817909 -1.91231,-1.641369 -2.51662,-3.319121 -0.55445,-1.53973 -0.61605,-2.025349 -0.51105,-4.02689 0.19883,-3.792439 1.29095,-5.102074 3.71024,-4.455263 1.0473,0.279897 1.7114,0.282075 2.64963,0.0087 2.58271,-0.752562 3.78948,0.856027 3.77968,5.03695 -0.008,3.431915 -0.9353,5.572423 -2.89674,6.685695 -1.01792,0.57831 -3.35419,0.617519 -4.21557,0.0654 z m -66.90061,-4.325189 c 0.0119,-6.241814 2.12724,-12.200464 4.54879,-12.813731 1.94367,-0.49227 4.0478,1.792322 4.07538,4.42477 0.014,1.789052 -0.60345,3.479543 -1.96048,5.32316 -1.35113,1.83665 -3.04293,3.326199 -5.00844,4.411229 -0.82748,0.456332 -1.53889,0.829892 -1.58159,0.829892 -0.042,0 -0.07,-0.979091 -0.07,-2.17565 z m -61.807377,1.142098 c -2.151732,-1.021569 -3.30712,-3.418631 -3.308242,-6.863435 -7.93e-4,-2.520489 0.431242,-3.993922 1.43696,-4.888288 0.519452,-0.462864 0.82468,-0.494448 2.070942,-0.211283 0.998289,0.226531 1.962848,0.227619 3.044028,0.0033 1.831372,-0.380093 2.494902,-0.0098 3.210092,1.795261 0.623059,1.570583 0.56425,5.16677 -0.112011,6.90834 -1.14531,2.949805 -3.95188,4.390755 -6.341629,3.255917 z M 148.28911,90.704892 C 147.2488,89.78896 146.04062,87.16849 145.55,84.765187 l -0.42843,-2.09999 0.75327,0.177522 c 2.79007,0.656725 5.07481,2.251268 5.74351,4.007974 1.12853,2.963207 -1.23491,5.698358 -3.32938,3.854297 z m -99.289107,-4.14083 c 0,-8.480443 2.742859,-14.684028 6.243328,-14.12086 1.381943,0.222176 2.028801,0.740585 2.930342,2.346235 0.54886,0.976916 0.662268,1.49783 0.65667,2.988146 -0.01,2.154989 -0.38504,3.209123 -1.98763,5.592278 -1.431081,2.127216 -3.660092,4.157613 -5.96079,5.429565 -0.931092,0.515141 -1.735611,0.936623 -1.787271,0.936623 -0.056,0 -0.098,-1.427258 -0.098,-3.171659 z m -25.504291,1.752571 c -1.9718,-1.182431 -2.43553,-4.367265 -1.38893,-9.540023 0.29123,-1.43619 1.21532,-4.104796 1.67134,-4.82229 0.11201,-0.170987 0.95349,1.15847 1.98595,3.126787 1.036101,1.974964 1.883461,5.260867 1.883461,7.300087 0,2.005021 -0.56565,3.235696 -1.811491,3.943062 -0.96049,0.544547 -1.42156,0.543457 -2.34033,-0.0075 z M 10.059472,87.476941 C 7.5740935,85.692898 5.3176352,79.851763 4.7505855,73.735303 l -0.1540201,-1.657057 1.9761487,0.618607 c 4.7468779,1.487157 8.6081679,5.181907 9.2110679,8.814033 0.38923,2.341769 -0.59506,4.990772 -2.22944,5.998837 -1.23632,0.763455 -2.40123,0.752562 -3.49515,-0.03267 z m 83.145851,-1.315625 c 0.166608,-1.914625 1.00389,-4.539776 1.916078,-6.003629 1.23632,-1.985306 3.374338,-1.606737 3.933685,0.695931 0.606257,2.497511 -1.253121,5.032812 -4.713836,6.425216 l -1.278319,0.514054 z m 66.649797,-2.72524 c -1.72708,-0.631674 -2.97377,-1.551847 -3.70701,-2.735911 -1.11733,-1.802667 -0.69307,-4.101309 0.88628,-4.809217 1.0459,-0.46831 1.7275,-0.09802 2.81695,1.543463 1.0403,1.5647 1.57837,2.916483 1.977,4.96866 0.28703,1.480624 0.28003,1.530287 -0.21562,1.509811 -0.28144,-0.0109 -1.07251,-0.226531 -1.75774,-0.477023 z m 11.44715,-2.452854 c -0.7911,-0.587023 -1.06833,-1.295585 -1.06833,-2.724042 0,-1.213032 0.11202,-1.503166 1.08513,-2.660218 1.0697,-1.279033 3.08198,-2.414413 4.79618,-2.705854 0.76028,-0.129601 0.77707,-0.108908 0.63287,0.861472 -0.28564,1.912012 -1.55794,5.155224 -2.50024,6.373048 -1.0025,1.296675 -1.97462,1.578859 -2.94701,0.856028 z M 42.201931,77.616071 c -0.77008,-0.516231 -1.022098,-1.2114 -1.029099,-2.842969 -0.007,-1.988794 2.813851,-4.554591 5.659199,-5.147493 l 1.0361,-0.21564 -0.168018,1.218586 c -0.378031,2.743972 -1.926302,6.119182 -3.22549,7.03195 -0.84708,0.595736 -1.332921,0.585933 -2.273951,-0.04356 z m -11.82806,-1.052065 c -1.99575,-1.231763 -3.202239,-4.440778 -2.877968,-7.654687 0.338828,-3.358222 1.501079,-4.550021 3.859749,-3.957551 0.99549,0.249399 1.748899,0.24396 2.73894,-0.0218 1.14531,-0.306038 1.481339,-0.284261 2.081721,0.138311 2.082699,1.46331 2.19247,7.449508 0.184819,10.089361 -1.524751,2.005021 -4.053811,2.598687 -5.987121,1.405366 z m 93.985409,-0.837513 c -1.16913,-0.566327 -2.22637,-1.915932 -2.78559,-3.55687 -0.58946,-1.730134 -0.58106,-4.732655 0.014,-6.526715 0.61607,-1.847101 1.28253,-2.225241 3.16152,-1.79799 1.02911,0.234159 1.92253,0.230889 2.9711,-0.0109 1.22653,-0.28207 1.61073,-0.259199 2.10988,0.127431 0.9395,0.727509 1.49129,2.435209 1.49129,4.620149 0,2.759977 -0.40184,4.21958 -1.55668,5.666877 -1.50403,1.883588 -3.46563,2.41953 -5.40959,1.478008 z M 98.703789,75.436796 c -1.346924,-0.597914 -2.713455,-1.612731 -3.677458,-2.733299 l -0.830279,-0.964939 1.42296,-0.910481 c 1.220916,-0.780878 1.717816,-0.910482 3.492214,-0.912659 2.369174,-0.0021 2.941684,0.442172 3.184194,2.471261 0.11201,0.954045 0.028,1.313884 -0.54186,2.157278 -0.80228,1.195824 -1.74444,1.4718 -3.050751,0.893056 z M 111.17611,72.08892 c -1.36514,-0.944243 -1.77721,-2.016893 -1.74054,-4.514072 0.014,-1.270971 0.23804,-2.976711 0.52926,-4.10762 0.47885,-1.85843 1.86947,-5.322731 2.13439,-5.314241 0.32902,0.0109 2.15914,4.265549 2.59964,6.042401 0.55025,2.21446 0.64406,5.080619 0.21002,6.373702 -0.29404,0.872365 -1.74345,2.084853 -2.49435,2.083982 -0.23382,-2.64e-4 -0.79108,-0.253759 -1.23773,-0.564152 z M 164.997,71.711005 c -1.35954,-1.845794 -0.65947,-4.536617 1.30773,-5.038257 1.60023,-0.408411 5.98196,1.31323 5.75304,2.259661 -0.15962,0.661072 -2.06814,2.388917 -3.36691,3.049127 -1.88109,0.956225 -2.84342,0.885433 -3.69443,-0.270095 z M 12.829352,72.098723 c -1.35113,-0.474846 -2.39773,-2.282741 -3.2041997,-5.535317 -0.5208487,-2.104998 -0.8554884,-7.447978 -0.4662487,-7.447978 0.126009,0 0.9422884,0.437809 1.8114884,0.973651 3.24244,1.99739 5.52703,5.24932 5.52535,7.864779 -8.47e-4,1.409941 -0.64966,3.174047 -1.34973,3.673396 -0.60065,0.428013 -1.76542,0.664347 -2.3161,0.471577 z M 139.61788,71.604275 c -1.10191,-1.00959 -1.72707,-2.589758 -1.70761,-4.323808 0.028,-3.141059 2.46635,-7.581069 5.75011,-10.5005 l 1.7772,-1.579939 0.31502,2.038131 c 0.46205,2.979647 0.25622,8.6218 -0.39624,10.923278 -0.50124,1.768573 -1.31613,3.099337 -2.33038,3.807357 -0.8807,0.614248 -2.53132,0.437816 -3.40782,-0.364848 z M 75.865072,66.035528 c -1.86386,-1.281001 -2.54699,-3.022891 -2.54699,-6.49383 0,-2.16817 0.084,-2.7969 0.495649,-3.545552 0.820481,-1.505008 1.563952,-1.827929 3.277862,-1.422458 1.078101,0.25485 1.843411,0.25376 2.792419,-0.005 1.087912,-0.297321 1.427721,-0.27227 2.024323,0.147029 1.033298,0.725342 1.583831,2.509602 1.57165,5.084 -0.0123,2.644532 -0.69027,4.493382 -2.165172,5.89951 -0.837279,0.798301 -1.302121,0.991071 -2.609711,1.083651 -1.351129,0.098 -1.779148,-0.0218 -2.84017,-0.74712 z m 25.145028,-0.30277 c -3.223115,-1.367359 -4.562349,-6.004391 -2.947298,-10.20448 1.253124,-3.25988 2.936368,-3.977589 4.893628,-2.086922 0.62445,0.602271 1.75886,1.333162 2.52319,1.624603 1.75438,0.6687 2.35813,1.618059 2.35813,3.707159 0,2.973768 -1.74529,6.238219 -3.77746,7.065499 -1.1327,0.46068 -1.76669,0.438902 -3.05019,-0.10891 z M 61.150082,65.242667 c -1.836139,-1.132229 -2.206468,-4.07027 -0.809281,-6.416619 0.88909,-1.49097 3.545142,-3.431191 5.550131,-4.052951 2.60537,-0.808109 2.55847,-0.84078 2.16055,1.499362 -0.66086,3.888819 -2.473759,7.836019 -4.12311,8.979138 -1.129909,0.78305 -1.496611,0.781971 -2.778991,-0.009 z m 99.491638,-0.995439 c -0.97311,-1.15988 -1.25872,-2.62428 -0.8471,-4.32108 0.58668,-2.415939 3.58662,-3.926512 7.17559,-3.613401 1.14113,0.098 2.17667,0.26792 2.30268,0.37356 0.35145,0.29515 -1.0627,3.34755 -2.4389,5.26011 -2.34987,3.266511 -4.6622,4.125812 -6.19199,2.300919 z m -142.384468,0.0653 c -1.58033,-1.309309 -1.6775,-4.318151 -0.26322,-8.17985 0.79107,-2.158699 2.80335,-5.71709 3.23445,-5.71709 0.28982,0 1.36233,3.513851 1.65132,5.414862 0.84568,5.546648 -0.23803,9.091429 -2.78249,9.088598 -0.66506,-5.29e-4 -1.40014,-0.242869 -1.83936,-0.606628 z m 132.095388,0.0654 c -1.08792,-0.72861 -1.57334,-2.115349 -1.55934,-4.45679 0.014,-2.507858 0.56706,-4.978789 1.68045,-7.524549 l 0.89468,-2.04488 0.68047,1.078198 c 1.28533,2.033562 2.35168,5.562762 2.47587,8.192382 0.12601,2.69921 -0.14841,3.590739 -1.44481,4.66459 -0.91849,0.76127 -1.68871,0.787408 -2.72789,0.0871 z m -122.464847,-3.8469 c -0.977292,-1.198771 -2.221451,-4.289181 -2.505261,-6.219269 l -0.16101,-1.096823 1.219519,0.19603 c 2.66025,0.428022 5.48124,2.999801 5.473821,4.990121 -0.005,1.54314 -0.27723,2.33992 -0.964689,2.821951 -1.131311,0.795038 -2.01409,0.59464 -3.062941,-0.692661 z m 19.794119,0.233069 c -2.583389,-1.594329 -4.822481,-7.77744 -5.2295,-14.442109 l -0.16102,-2.64051 2.12289,0.896321 c 4.84614,2.04674 8.685731,6.163699 9.196221,9.86073 0.366828,2.647148 -1.12711,5.839608 -3.07344,6.573768 -1.28252,0.483561 -1.73182,0.444349 -2.85487,-0.248309 z m 80.397678,-0.495538 c -1.05149,-0.639302 -1.42437,-2.427812 -0.84147,-4.036621 0.67486,-1.863439 2.91284,-3.525721 5.46194,-4.05665 l 1.0179,-0.212381 -0.16242,0.917019 c -0.43263,2.452312 -1.16631,4.435012 -2.18981,5.922272 -1.24334,1.807459 -2.09783,2.188538 -3.28697,1.466139 z m -12.72757,-1.811602 c -0.83589,-0.893059 -1.0151,-2.44937 -0.51944,-4.478899 0.41584,-1.703451 2.31205,-5.499121 2.74608,-5.499121 0.50126,0 1.25314,3.038531 1.36095,5.502392 0.084,1.863979 0.013,2.685698 -0.28842,3.478889 -0.64407,1.693 -2.20454,2.16457 -3.29735,0.996519 z M 36.544401,57.773009 c -2.01745,-1.51221 -3.637118,-5.931202 -4.038118,-11.017242 l -0.168021,-2.132219 1.27272,0.50642 c 1.903481,0.75692 3.14946,1.563069 4.703331,3.04391 2.568689,2.44792 3.40891,5.1675 2.37127,7.675679 -0.82328,1.99032 -2.816932,2.916592 -4.141182,1.923992 z M 137.84993,57.521427 c -0.60766,-0.337619 -1.20412,-1.266179 -1.41302,-2.20204 -0.39065,-1.73569 1.4539,-4.849511 3.83583,-6.47945 1.54687,-1.0586 1.57698,-1.018299 1.42912,1.912551 -0.24642,4.889709 -1.92533,7.839949 -3.85152,6.768939 z m -16.50698,-0.95949 c -0.85969,-1.167289 -0.88349,-2.19692 -0.098,-4.468659 0.54747,-1.595962 2.72509,-4.90361 3.229,-4.90361 0.81348,0 1.11733,6.769441 0.38644,8.612618 -0.78408,1.978343 -2.36119,2.319563 -3.50945,0.7591 z m 39.85798,-3.54566 c -0.44804,-0.608799 -0.69447,-1.273361 -0.69447,-1.87868 0,-1.96266 2.17065,-5.126659 4.37558,-6.378461 0.8163,-0.463957 0.8373,-0.456329 0.98431,0.337622 0.18342,0.998691 -0.042,3.360391 -0.52506,5.386509 -0.79527,3.355822 -2.68421,4.511791 -4.14091,2.53269 z m -53.96749,-0.555429 c -0.62447,-0.91484 -0.77568,-2.565469 -0.33744,-3.67751 0.44105,-1.122421 1.64797,-1.711079 3.55161,-1.73373 1.93554,-0.0218 4.03338,0.633849 4.03338,1.26324 0,0.644739 -2.52166,3.688839 -3.61446,4.362659 -1.50291,0.926822 -2.91117,0.842959 -3.63309,-0.214548 z M 58.405962,50.036849 c 1.750861,-5.854391 5.09144,-10.061012 7.5575,-9.517341 2.448412,0.54019 3.756001,4.327189 2.425311,7.02531 -1.30352,2.6432 -4.80218,4.479628 -8.534231,4.479628 h -2.043081 z m 15.249281,0.153559 c -1.099111,-1.349492 -2.267521,-4.249719 -2.49714,-6.199741 l -0.155421,-1.313989 0.80228,0.190589 c 2.521079,0.600091 4.911111,2.330551 5.554332,4.020611 0.798078,2.09658 -0.23522,4.49171 -1.937081,4.49171 -0.586661,0 -1.054301,-0.31583 -1.766692,-1.189389 z m 81.399487,-0.0436 c -0.82609,-1.121659 -1.19712,-2.836288 -1.16071,-5.37355 0.028,-2.39449 0.24222,-3.776869 0.59646,-3.937079 0.43683,-0.19821 3.09374,3.36029 3.6279,4.85943 0.70007,1.966359 0.64128,3.27465 -0.20442,4.420809 -0.9227,1.25486 -1.95194,1.265862 -2.86118,0.0327 z m -64.963589,-0.25594 c -1.083703,-0.74712 -1.569692,-2.135349 -1.567174,-4.472541 0.0021,-2.457648 0.557253,-4.937519 1.672181,-7.487629 0.994101,-2.273372 1.038903,-2.267932 2.242882,0.28316 1.604133,3.3958 2.324921,7.931981 1.575431,9.91326 -0.709869,1.87484 -2.557491,2.705931 -3.92332,1.763861 z m 27.083159,-6.07308 c -0.77008,-0.734052 -1.33853,-2.635601 -1.16351,-3.90091 0.39203,-2.834482 2.47055,-4.106102 5.57509,-3.40963 1.57894,0.353959 3.74789,1.299728 4.51966,1.970058 0.58104,0.505341 -1.46595,3.056983 -3.64457,4.541311 -1.56831,1.068401 -2.09952,1.271511 -3.328,1.271511 -0.90029,0 -1.6526,-0.18188 -1.95839,-0.47266 z m -65.274628,-0.21019 -1.015089,-0.325641 0.540448,-1.330651 c 0.798071,-1.963197 2.980322,-4.864877 4.390401,-5.835689 0.806481,-0.555441 1.616731,-0.850592 2.33444,-0.850592 0.933891,0 1.220919,0.16555 1.905859,1.095961 0.712671,0.96711 0.806482,1.294172 0.806482,2.782202 0,1.512531 -0.084,1.797108 -0.837282,2.759538 -0.460639,0.590291 -1.234919,1.23993 -1.720199,1.443702 -1.194318,0.502079 -5.15348,0.66326 -6.40506,0.26139 z M 159.54023,42.703647 c -0.87929,-1.19452 -0.9143,-2.75094 -0.11201,-5.083559 0.53485,-1.55915 2.34774,-4.611002 2.73979,-4.611002 0.33884,0 1.19012,4.231452 1.19012,5.921721 0,2.309101 -0.38504,3.668289 -1.20132,4.241372 -1.0375,0.728599 -1.83825,0.585927 -2.61406,-0.468313 z m -61.152598,-2.00578 c -1.279724,-0.860391 -2.105798,-2.526811 -2.295368,-4.62669 -0.19182,-2.137671 0.546047,-5.969324 1.718381,-8.922075 0.882084,-2.219462 3.266365,-6.388414 3.653655,-6.388414 0.112,0 0.61465,1.12406 1.12432,2.498061 2.57904,6.971504 2.84171,13.829749 0.63145,16.467319 -1.44509,1.723819 -3.19051,2.074939 -4.830888,0.971471 z m 10.812438,-3.248549 c -1.21952,-0.95949 -1.93668,-2.985311 -1.71543,-4.842552 0.36263,-3.056431 2.22678,-7.092505 4.48227,-9.710247 l 1.32593,-1.539111 0.23941,0.857121 c 0.9353,3.344822 1.06692,4.312372 1.06692,7.894074 0,3.221433 -0.07,3.904622 -0.54886,5.218393 -0.9367,2.585292 -3.07569,3.520931 -4.85121,2.122761 z M 61.058373,33.522156 c -2.321841,-1.126562 -5.240002,-6.168634 -6.25062,-10.799677 l -0.16941,-0.775441 2.117,0.18624 c 4.803018,0.422571 8.197638,2.616982 8.853051,5.722314 0.488637,2.315632 -0.667872,5.157082 -2.360351,5.795614 -1.0473,0.395349 -1.118711,0.390988 -2.189951,-0.129601 z m 10.59902,-0.46287 c -2.49392,-2.06623 -4.544142,-8.352156 -4.9345,-15.12817 -0.084,-1.446531 -0.042,-1.675461 0.284228,-1.540201 0.208622,0.0871 1.128512,0.4694 2.041541,0.849501 3.88719,1.616871 7.1047,4.707932 8.429501,8.098064 1.040299,2.662402 0.249229,6.260334 -1.6691,7.587506 -1.31332,0.908299 -3.143861,0.96711 -4.150551,0.132868 z m 16.285514,-1.711292 c -2.05189,-0.802659 -4.072291,-3.812152 -4.062063,-6.051774 0.006,-1.28349 0.396233,-2.048801 1.718102,-3.365402 0.491451,-0.48901 1.32033,-1.676551 1.843703,-2.638331 0.561448,-1.032461 1.20131,-1.833601 1.56031,-1.956341 1.432751,-0.489001 3.912112,1.603801 4.845304,4.088672 0.62166,1.655321 0.62166,4.425323 0,6.080634 -0.634262,1.686462 -2.187992,3.424982 -3.448674,3.856152 -1.19851,0.409501 -1.376332,0.408411 -2.456682,-0.0109 z M 75.927792,18.369526 c -2.440149,-1.47343 -2.733199,-5.180821 -0.824669,-10.4273093 0.55305,-1.5209195 1.50206,-3.4412083 2.21221,-4.4779077 l 1.243319,-1.8150891 0.849882,2.5440189 c 1.027701,3.0768981 1.38333,5.2068369 1.376329,8.2811362 -0.007,3.18941 -0.57826,4.867161 -1.94395,5.709241 -1.18871,0.732961 -1.930641,0.779791 -2.914381,0.18624 z m 8.066463,-2.190601 c -0.911489,-0.71009 -1.08371,-1.3067 -1.005301,-3.47868 0.084,-2.17154 0.823281,-4.8126983 1.819473,-6.4464475 l 0.49145,-0.8059297 0.47185,0.8059297 c 0.870879,1.4856291 1.50542,4.2164275 1.525721,6.5542675 0.014,2.0292 -0.028,2.26423 -0.646862,2.98151 -0.722469,0.84513 -1.85756,1.01177 -2.65577,0.38989 z"
       id="path6102-2"
       inkscape:connector-curvature="0" />
    <path
       sodipodi:nodetypes="cssssccscsssssssssssscssssscsssscscsssssssscssscssssssssssscsccssssscsssssscscccsscssccsssccssssccccscsssscssccssssscsccsscscssscssssscsssssccssscsssscscsscssscsssscssscsssssssscssssscsccccc"
       inkscape:connector-curvature="0"
       id="path6096-9"
       d="m 85.410201,282.90235 c 0.056,-0.59682 0.126007,1.46659 -0.028,-1.85637 -0.383641,-8.4396 1.42743,3.22678 -0.819082,-21.05923 -0.70987,-7.67212 2.724522,-37.43781 4.812543,-57.98128 1.762491,-17.34087 6.248663,-25.09041 5.867825,-39.86605 l -0.042,-1.65313 -1.300732,-2.92835 c -0.94649,-1.64704 -2.684052,-4.34036 -3.863393,-5.9851 l -2.144021,-2.99056 -2.965631,0.18406 c -6.939623,0.43019 -12.823403,2.93849 -18.228343,7.77177 -3.876551,3.46669 -8.74454,10.54634 -11.303421,16.43944 -0.51385,1.18373 -1.072509,2.15225 -1.24052,2.15225 -0.445249,0 -0.39624,-0.29949 0.537649,-3.24004 4.739871,-14.91361 13.89493,-25.20619 25.193034,-28.3235 2.05834,-0.56742 1.990429,-1.13681 -0.357032,-2.98641 -5.796982,-4.56745 -11.598432,-6.65328 -18.444952,-6.63149 -3.888448,0.0109 -6.58763,0.58375 -9.998778,2.1161 -4.59748,2.06568 -8.982562,5.53935 -13.07837,10.36044 -4.00494,4.71392 -3.034091,1.80866 1.37773,-4.12352 1.374929,-1.84896 3.363968,-4.18832 4.419529,-5.19869 2.137859,-2.04629 5.65164,-4.61764 7.730561,-5.65729 1.0389,-0.5195 1.365128,-0.83534 1.365128,-1.32216 0,-0.76781 -2.322129,-4.65457 -4.656989,-7.79379 -2.77898,-3.73647 -4.481269,-5.48765 -5.857179,-6.02522 -9.492912,-3.70881 -19.616581,-0.0653 -26.052711,9.36407 -1.31193,1.92313 -4.01685,6.99165 -4.29716,8.05255 -0.056,0.23959 -0.19181,0.34088 -0.28422,0.22434 -0.27723,-0.34524 1.38053,-5.12298 2.77296,-7.99547 4.17968,-8.61761 10.27965,-13.64554 18.283651,-15.0704 1.753388,-0.31259 1.427998,-1.07931 -0.904481,-2.12964 -4.640609,-2.09107 -10.00606,-2.97738 -16.34615,-2.70009 -2.46605,0.10891 -4.428479,0.12198 -4.360859,0.0327 0.233829,-0.31257 5.766459,-1.4705 8.825749,-1.84613 1.89172,-0.23198 3.1006,-0.51841 3.1573,-0.74713 0.056,-0.20366 -0.43544,-1.15323 -1.0795,-2.10947 -5.38828,-7.996569 -7.06438,-18.347823 -4.64061,-28.659797 0.72807,-3.0964 1.06971,-3.465055 0.59366,-0.641477 -0.23382,1.39219 -0.35563,3.744521 -0.35143,6.758808 0.007,4.080833 0.084,4.952542 0.64266,7.42827 1.52894,6.763157 4.72629,12.679306 8.841011,16.358926 1.810369,1.61894 2.262748,1.86682 4.644239,2.54467 9.83552,2.79955 17.984999,9.89001 24.235619,21.08595 l 1.461881,2.6184 4.042751,-0.19494 c 6.122639,-0.29514 10.741409,0.72424 16.489239,3.64018 4.471883,2.26869 10.111906,7.33788 14.394637,12.93745 2.845644,3.72089 3.152415,3.79779 3.151013,0.79068 -0.0021,-3.23874 -0.459249,-10.69065 -0.855489,-13.95989 -1.449692,-11.91961 -6.772165,-21.07164 -15.040528,-25.86238 -5.363912,-3.10796 -10.711583,-3.77372 -16.309042,-2.03018 -1.829412,0.56959 -5.42734,2.41791 -7.153842,3.67473 -1.4581,1.06186 -1.897459,0.97473 -0.84288,-0.16664 2.2895,-2.47998 6.651331,-5.35488 9.955371,-6.56149 2.667961,-0.97475 7.983001,-1.211838 10.85986,-0.48574 4.051431,1.02267 8.319464,3.49089 11.736485,6.78585 2.776193,2.67701 3.041232,2.25836 1.377742,-2.17646 C 84.94746,93.578891 76.979146,83.493917 66.467506,76.325505 59.265776,71.414454 52.363117,68.231797 41.397124,64.766198 c -2.74035,-0.865831 -5.088929,-1.6417 -5.219419,-1.723822 -0.959099,-0.603358 10.08208,1.319332 14.70938,2.561773 12.15779,3.264548 23.181879,9.91902 30.945352,18.679798 0.93949,1.059688 1.8654,1.881518 2.059311,1.826953 0.291229,-0.07624 0.366839,-1.023747 0.43125,-5.360191 0.084,-5.344073 0.399032,-8.344308 1.299322,-12.260681 0.45644,-1.986179 0.464841,-2.24659 0.142809,-4.779269 -0.97449,-7.51246 -3.322931,-13.57381 -7.059895,-18.22355 -3.465607,-4.312161 -7.382629,-6.607532 -13.007948,-7.622792 l -2.46661,-0.445439 4.033358,0.108911 c 4.605042,0.125248 5.701351,0.435639 9.070912,2.569937 1.205518,0.763453 2.251279,1.256483 2.32506,1.096172 0.07,-0.1601 0.158219,-2.48194 0.187619,-5.15882 0.056,-5.498614 0.497052,-8.219286 1.955431,-12.200898 0.855481,-2.338512 0.865281,-2.154012 0.084,1.753651 -0.75048,3.742021 -0.865288,9.909234 -0.253429,13.612587 0.58946,3.568959 1.75549,6.874248 3.441252,9.757378 1.248919,2.136043 2.677623,5.610681 3.486901,8.480881 0.228222,0.808101 0.56565,1.510572 0.74907,1.560782 0.189022,0.0545 1.017901,-1.137891 1.903764,-2.732101 3.592461,-6.46562 8.440015,-10.80585 14.339806,-12.839192 2.29063,-0.789588 7.83113,-1.490088 8.1711,-1.033539 0.1568,0.21128 -0.38505,0.451969 -1.61509,0.717711 -6.19786,1.339469 -12.148194,5.44634 -15.856313,10.943828 -2.978785,4.416171 -5.428466,10.690321 -6.458544,16.540933 -0.586651,3.331863 -0.637062,4.152821 -0.639862,10.470655 -0.0021,5.8175 0.07,7.318161 0.49985,9.912276 0.450842,2.74361 0.65946,3.364611 2.040422,6.05827 4.088111,7.97795 6.240535,15.09206 7.863156,25.99069 1.229314,8.26078 2.183811,18.79722 2.430921,26.85553 0.084,2.81563 0.22963,5.27633 0.31783,5.46824 0.28564,0.62404 0.8191,0.0218 1.61425,-1.8384 2.23756,-5.22121 7.26966,-12.68435 11.75683,-17.43725 3.25743,-3.45026 6.32054,-9.0605 9.24936,-16.94079 1.00948,-2.71882 1.0977,-3.16001 1.36933,-6.90837 1.12851,-15.632588 -4.44909,-29.342609 -13.66454,-33.593013 -1.68549,-0.777613 -2.23016,-0.873453 -4.86368,-0.859295 -2.27887,0.0109 -3.34928,0.168809 -4.62285,0.675237 -0.9115,0.362667 -1.689,0.617517 -1.7275,0.565238 -0.15823,-0.212373 2.50052,-1.549342 4.2885,-2.156947 2.85252,-0.969293 6.17994,-0.720982 9.06074,0.677415 2.84468,1.380427 3.09936,1.395892 3.02796,0.182968 -0.43687,-7.438838 -0.25204,-9.856185 1.06549,-13.937996 0.71548,-2.213478 0.9017,-2.242339 0.42845,-0.0653 -1.57824,7.261638 -0.38785,15.452059 2.95863,20.361146 3.04111,4.461036 5.53449,12.243559 6.06724,18.939207 0.14843,1.86159 0.54326,2.7453 0.97031,2.17122 0.31643,-0.42474 2.02656,-8.64448 2.79593,-13.437759 1.08512,-6.764256 1.8678,-13.273657 2.6114,-21.735479 0.33606,-3.828814 0.66228,-7.105025 0.72388,-7.280365 0.056,-0.17535 0.07,4.88251 0.014,11.239656 -0.07,9.145553 -0.028,11.55844 0.20162,11.55844 0.16382,0 0.78128,-0.824442 1.37354,-1.83338 3.08983,-5.273498 6.76632,-8.999289 10.61742,-10.759591 2.05849,-0.940975 3.29426,-1.8752 4.93507,-3.731014 2.3129,-2.615671 3.87714,-5.817611 5.03212,-10.300319 l 0.73928,-2.869761 -0.15122,1.913099 c -0.30524,3.851262 -1.63621,8.0875 -3.48649,11.092532 -0.51666,0.839687 -0.8863,1.718474 -0.81909,1.952522 0.07,0.259204 0.89049,0.57613 2.08607,0.811374 3.60718,0.709001 6.82457,2.910601 9.34287,6.393632 l 1.18592,1.640721 -2.31639,-2.072547 c -1.46091,-1.307129 -3.03832,-2.405589 -4.27057,-2.974097 -1.76699,-0.815729 -2.2604,-0.901769 -5.15687,-0.901769 -2.68785,0 -3.48901,0.119801 -4.98226,0.743852 -2.84412,1.18831 -5.4537,3.352666 -4.91506,4.076476 0.07,0.09802 0.90589,0.38554 1.85812,0.651279 3.51282,0.976916 7.53136,4.245285 9.28112,7.547962 0.43405,0.818997 0.27024,0.717712 -1.0823,-0.677415 -3.29888,-3.398081 -5.99206,-4.816081 -9.64937,-5.080513 -3.30559,-0.238512 -3.95651,0.08713 -5.62674,2.801474 -3.16713,5.150652 -4.707,9.66643 -6.83704,20.04998 -1.7646,8.60171 -3.44407,14.78823 -5.48365,20.19877 -0.55026,1.46015 -0.56846,2.14029 -0.056,2.14029 0.12601,0 1.43165,-0.69702 2.89228,-1.55022 7.8006,-4.55352 16.01692,-7.22671 27.54947,-8.96318 2.33922,-0.35178 4.2913,-0.5892 4.3382,-0.52604 0.042,0.0653 -0.9605,0.43455 -2.23644,0.82555 -7.12716,2.18364 -14.6378,4.82927 -15.54816,5.47686 -0.83869,0.59573 -0.45506,1.14987 0.94929,1.3678 6.17659,0.95949 12.54527,3.21132 20.88214,7.38461 8.0203,4.01484 15.4157,3.7663 21.98629,-0.73948 1.74877,-1.1991 2.54826,-2.01484 4.28498,-4.37174 3.45609,-4.6901 4.86323,-9.18492 4.89767,-15.64491 0.014,-4.1094 0.42984,-3.03327 0.60346,1.59432 0.15682,4.16145 -0.30103,7.08078 -1.71012,10.91899 -1.25872,3.42739 -3.7413,7.11398 -6.24867,9.28051 -2.89955,2.50524 -7.18454,4.23288 -11.60199,4.67766 -1.20833,0.12197 -2.25115,0.34088 -2.31835,0.48682 -0.17222,0.37574 0.098,0.64366 3.68433,3.69388 3.7311,3.17014 10.73125,9.71537 10.59151,9.90314 -0.056,0.0762 -1.68325,-1.04553 -3.6237,-2.4813 -8.06189,-5.96484 -15.95168,-10.89321 -21.98658,-13.73411 -4.70895,-2.21664 -5.55758,-2.00818 -3.15787,0.77652 1.60287,1.85984 3.86817,5.62474 5.12619,8.51998 4.33078,9.96564 4.03353,21.33218 -0.75607,28.94711 -1.21813,1.93653 -3.15775,4.1085 -4.50538,5.04502 -0.36404,0.25375 0.32484,-0.86257 1.56087,-2.52278 1.80409,-2.42443 2.39789,-3.47714 3.19541,-5.6635 1.38754,-3.8029 1.7835,-6.13464 1.75732,-10.33801 -0.042,-7.68867 -2.38164,-14.48875 -7.16901,-20.88892 -3.53928,-4.73167 -7.08094,-7.38155 -11.6349,-8.70545 -1.85085,-0.53801 -3.10943,-0.65672 -7.00127,-0.65999 -6.79334,-0.005 -10.80056,1.10499 -15.94552,4.4178 -4.55872,2.93543 -8.04843,6.41325 -12.05017,12.00933 -6.14061,8.58695 -9.30297,18.17773 -10.67623,32.3781 -0.45505,4.69203 -0.58946,12.58 -0.22122,12.7523 0.14282,0.0653 1.18172,-1.31236 2.31724,-3.06101 5.48673,-8.45212 12.97973,-14.65702 20.99863,-17.38891 4.53505,-1.54498 6.81813,-1.87335 12.7298,-1.83076 7.05042,0.0545 8.25552,0.43673 3.0785,0.98671 -8.73059,0.92682 -15.40451,3.37728 -21.22812,7.79302 -2.85643,2.16588 -2.95934,2.71021 -0.62306,3.28971 3.63421,0.90178 7.66844,3.32055 10.2769,6.16221 3.71024,4.04216 6.35987,10.79237 6.82401,17.38498 l 0.14282,1.91309 -0.79109,-3.18853 c -1.29372,-5.21207 -2.65606,-8.23953 -5.18345,-11.51467 -3.68826,-4.77959 -8.06091,-7.24387 -13.58796,-7.65763 -3.84423,-0.28752 -4.1342,-0.12851 -6.91475,3.79234 -2.78809,3.93162 -3.85683,6.07105 -4.81957,9.64687 -1.7464,6.48608 -2.45066,14.46436 -2.4627,27.89352 -0.0108,12.03918 1.47813,22.68397 2.71851,36.66826 0.80508,9.06976 3.02361,21.95002 2.10722,21.6575 0.14281,0.12851 -0.084,4.41671 -4.27646,4.41944 -4.187694,0.003 -16.648903,2.00316 -18.031813,-2.74246 l 0.246431,-1.23579 z"
       style="display:inline;fill:#3f775e;fill-opacity:1;stroke-width:0.27504188;marker-start:url(#marker112793)" />
  </g>
</svg>
